solid OpenSCAD_Model
  facet normal -0 0 1
    outer loop
      vertex 22.5349 3.25 10
      vertex 25 0 10
      vertex 25 3.25 10
    endloop
  endfacet
  facet normal -0 0 1
    outer loop
      vertex 20.5 2.07513 10
      vertex 25 0 10
      vertex 22.5349 3.25 10
    endloop
  endfacet
  facet normal -0 0 1
    outer loop
      vertex 14.5349 3.25 10
      vertex 20.5 2.07513 10
      vertex 18.4651 3.25 10
    endloop
  endfacet
  facet normal 0 0 1
    outer loop
      vertex 12.5 2.07513 10
      vertex 20.5 2.07513 10
      vertex 14.5349 3.25 10
    endloop
  endfacet
  facet normal 0 0 1
    outer loop
      vertex 20.5 2.07513 10
      vertex 12.5 2.07513 10
      vertex 25 0 10
    endloop
  endfacet
  facet normal -0 0 1
    outer loop
      vertex 6.53493 3.25 10
      vertex 12.5 2.07513 10
      vertex 10.4651 3.25 10
    endloop
  endfacet
  facet normal 0 0 1
    outer loop
      vertex 4.5 2.07513 10
      vertex 12.5 2.07513 10
      vertex 6.53493 3.25 10
    endloop
  endfacet
  facet normal 0 0 1
    outer loop
      vertex 0 0 10
      vertex 12.5 2.07513 10
      vertex 4.5 2.07513 10
    endloop
  endfacet
  facet normal 0 0 1
    outer loop
      vertex 0 0 10
      vertex 2.46507 3.25 10
      vertex 0 3.25 10
    endloop
  endfacet
  facet normal 0 0 1
    outer loop
      vertex 12.5 2.07513 10
      vertex 0 0 10
      vertex 25 0 10
    endloop
  endfacet
  facet normal 0 0 1
    outer loop
      vertex 2.46507 3.25 10
      vertex 0 0 10
      vertex 4.5 2.07513 10
    endloop
  endfacet
  facet normal 0 0 1
    outer loop
      vertex 25 25 10
      vertex 22.5349 21.75 10
      vertex 25 21.75 10
    endloop
  endfacet
  facet normal 0 0 1
    outer loop
      vertex 25 25 10
      vertex 20.5 22.9249 10
      vertex 22.5349 21.75 10
    endloop
  endfacet
  facet normal 0 0 1
    outer loop
      vertex 20.5 22.9249 10
      vertex 14.5349 21.75 10
      vertex 18.4651 21.75 10
    endloop
  endfacet
  facet normal 0 0 1
    outer loop
      vertex 12.5 22.9249 10
      vertex 20.5 22.9249 10
      vertex 25 25 10
    endloop
  endfacet
  facet normal 0 0 1
    outer loop
      vertex 20.5 22.9249 10
      vertex 12.5 22.9249 10
      vertex 14.5349 21.75 10
    endloop
  endfacet
  facet normal 0 0 1
    outer loop
      vertex 12.5 22.9249 10
      vertex 6.53493 21.75 10
      vertex 10.4651 21.75 10
    endloop
  endfacet
  facet normal 0 0 1
    outer loop
      vertex 12.5 22.9249 10
      vertex 4.5 22.9249 10
      vertex 6.53493 21.75 10
    endloop
  endfacet
  facet normal -0 0 1
    outer loop
      vertex 0 25 10
      vertex 12.5 22.9249 10
      vertex 25 25 10
    endloop
  endfacet
  facet normal 0 0 1
    outer loop
      vertex 12.5 22.9249 10
      vertex 0 25 10
      vertex 4.5 22.9249 10
    endloop
  endfacet
  facet normal 0 0 1
    outer loop
      vertex 0 25 10
      vertex 2.46507 21.75 10
      vertex 4.5 22.9249 10
    endloop
  endfacet
  facet normal 0 0 1
    outer loop
      vertex 2.46507 21.75 10
      vertex 0 25 10
      vertex 0 21.75 10
    endloop
  endfacet
  facet normal -0 0 1
    outer loop
      vertex 22.5349 19.25 10
      vertex 25 13.75 10
      vertex 25 19.25 10
    endloop
  endfacet
  facet normal 0 0 1
    outer loop
      vertex 22.5349 19.25 10
      vertex 22.5349 13.75 10
      vertex 25 13.75 10
    endloop
  endfacet
  facet normal -0 0 1
    outer loop
      vertex 20.5 18.0751 10
      vertex 22.5349 13.75 10
      vertex 22.5349 19.25 10
    endloop
  endfacet
  facet normal 0 0 1
    outer loop
      vertex 20.5 18.0751 10
      vertex 20.5 14.9249 10
      vertex 22.5349 13.75 10
    endloop
  endfacet
  facet normal 0 0 1
    outer loop
      vertex 18.4651 19.25 10
      vertex 20.5 14.9249 10
      vertex 20.5 18.0751 10
    endloop
  endfacet
  facet normal 0 0 1
    outer loop
      vertex 18.4651 19.25 10
      vertex 18.4651 13.75 10
      vertex 20.5 14.9249 10
    endloop
  endfacet
  facet normal -0 0 1
    outer loop
      vertex 14.5349 19.25 10
      vertex 18.4651 13.75 10
      vertex 18.4651 19.25 10
    endloop
  endfacet
  facet normal 0 0 1
    outer loop
      vertex 14.5349 19.25 10
      vertex 14.5349 13.75 10
      vertex 18.4651 13.75 10
    endloop
  endfacet
  facet normal -0 0 1
    outer loop
      vertex 12.5 18.0751 10
      vertex 14.5349 13.75 10
      vertex 14.5349 19.25 10
    endloop
  endfacet
  facet normal 0 0 1
    outer loop
      vertex 12.5 18.0751 10
      vertex 12.5 14.9249 10
      vertex 14.5349 13.75 10
    endloop
  endfacet
  facet normal 0 0 1
    outer loop
      vertex 10.4651 19.25 10
      vertex 12.5 14.9249 10
      vertex 12.5 18.0751 10
    endloop
  endfacet
  facet normal 0 0 1
    outer loop
      vertex 10.4651 19.25 10
      vertex 10.4651 13.75 10
      vertex 12.5 14.9249 10
    endloop
  endfacet
  facet normal -0 0 1
    outer loop
      vertex 6.53493 19.25 10
      vertex 10.4651 13.75 10
      vertex 10.4651 19.25 10
    endloop
  endfacet
  facet normal 0 0 1
    outer loop
      vertex 6.53493 19.25 10
      vertex 6.53493 13.75 10
      vertex 10.4651 13.75 10
    endloop
  endfacet
  facet normal -0 0 1
    outer loop
      vertex 4.5 18.0751 10
      vertex 6.53493 13.75 10
      vertex 6.53493 19.25 10
    endloop
  endfacet
  facet normal 0 0 1
    outer loop
      vertex 4.5 18.0751 10
      vertex 4.5 14.9249 10
      vertex 6.53493 13.75 10
    endloop
  endfacet
  facet normal 0 0 1
    outer loop
      vertex 2.46507 19.25 10
      vertex 4.5 14.9249 10
      vertex 4.5 18.0751 10
    endloop
  endfacet
  facet normal 0 0 1
    outer loop
      vertex 2.46507 19.25 10
      vertex 2.46507 13.75 10
      vertex 4.5 14.9249 10
    endloop
  endfacet
  facet normal -0 0 1
    outer loop
      vertex 0 19.25 10
      vertex 2.46507 13.75 10
      vertex 2.46507 19.25 10
    endloop
  endfacet
  facet normal 0 0 1
    outer loop
      vertex 2.46507 13.75 10
      vertex 0 19.25 10
      vertex 0 13.75 10
    endloop
  endfacet
  facet normal -0 0 1
    outer loop
      vertex 22.5349 11.25 10
      vertex 25 5.75 10
      vertex 25 11.25 10
    endloop
  endfacet
  facet normal 0 0 1
    outer loop
      vertex 22.5349 11.25 10
      vertex 22.5349 5.75 10
      vertex 25 5.75 10
    endloop
  endfacet
  facet normal -0 0 1
    outer loop
      vertex 20.5 10.0751 10
      vertex 22.5349 5.75 10
      vertex 22.5349 11.25 10
    endloop
  endfacet
  facet normal 0 0 1
    outer loop
      vertex 20.5 10.0751 10
      vertex 20.5 6.92487 10
      vertex 22.5349 5.75 10
    endloop
  endfacet
  facet normal 0 0 1
    outer loop
      vertex 18.4651 11.25 10
      vertex 20.5 6.92487 10
      vertex 20.5 10.0751 10
    endloop
  endfacet
  facet normal 0 0 1
    outer loop
      vertex 18.4651 11.25 10
      vertex 18.4651 5.75 10
      vertex 20.5 6.92487 10
    endloop
  endfacet
  facet normal -0 0 1
    outer loop
      vertex 14.5349 11.25 10
      vertex 18.4651 5.75 10
      vertex 18.4651 11.25 10
    endloop
  endfacet
  facet normal 0 0 1
    outer loop
      vertex 14.5349 11.25 10
      vertex 14.5349 5.75 10
      vertex 18.4651 5.75 10
    endloop
  endfacet
  facet normal -0 0 1
    outer loop
      vertex 12.5 10.0751 10
      vertex 14.5349 5.75 10
      vertex 14.5349 11.25 10
    endloop
  endfacet
  facet normal 0 0 1
    outer loop
      vertex 12.5 10.0751 10
      vertex 12.5 6.92487 10
      vertex 14.5349 5.75 10
    endloop
  endfacet
  facet normal 0 0 1
    outer loop
      vertex 10.4651 11.25 10
      vertex 12.5 6.92487 10
      vertex 12.5 10.0751 10
    endloop
  endfacet
  facet normal 0 0 1
    outer loop
      vertex 10.4651 11.25 10
      vertex 10.4651 5.75 10
      vertex 12.5 6.92487 10
    endloop
  endfacet
  facet normal -0 0 1
    outer loop
      vertex 6.53493 11.25 10
      vertex 10.4651 5.75 10
      vertex 10.4651 11.25 10
    endloop
  endfacet
  facet normal 0 0 1
    outer loop
      vertex 6.53493 11.25 10
      vertex 6.53493 5.75 10
      vertex 10.4651 5.75 10
    endloop
  endfacet
  facet normal -0 0 1
    outer loop
      vertex 4.5 10.0751 10
      vertex 6.53493 5.75 10
      vertex 6.53493 11.25 10
    endloop
  endfacet
  facet normal 0 0 1
    outer loop
      vertex 4.5 10.0751 10
      vertex 4.5 6.92487 10
      vertex 6.53493 5.75 10
    endloop
  endfacet
  facet normal 0 0 1
    outer loop
      vertex 2.46507 11.25 10
      vertex 4.5 6.92487 10
      vertex 4.5 10.0751 10
    endloop
  endfacet
  facet normal 0 0 1
    outer loop
      vertex 2.46507 11.25 10
      vertex 2.46507 5.75 10
      vertex 4.5 6.92487 10
    endloop
  endfacet
  facet normal -0 0 1
    outer loop
      vertex 0 11.25 10
      vertex 2.46507 5.75 10
      vertex 2.46507 11.25 10
    endloop
  endfacet
  facet normal 0 0 1
    outer loop
      vertex 2.46507 5.75 10
      vertex 0 11.25 10
      vertex 0 5.75 10
    endloop
  endfacet
  facet normal -0 0 1
    outer loop
      vertex 22.5349 5.75 2
      vertex 25 3.25 2
      vertex 25 5.75 2
    endloop
  endfacet
  facet normal 0 0 1
    outer loop
      vertex 22.5349 5.75 2
      vertex 22.5349 3.25 2
      vertex 25 3.25 2
    endloop
  endfacet
  facet normal 0 0 1
    outer loop
      vertex 18.4651 5.75 2
      vertex 22.5349 5.75 2
      vertex 20.5 6.92487 2
    endloop
  endfacet
  facet normal 0 0 1
    outer loop
      vertex 22.5349 5.75 2
      vertex 18.4651 5.75 2
      vertex 22.5349 3.25 2
    endloop
  endfacet
  facet normal 0 0 1
    outer loop
      vertex 18.4651 3.25 2
      vertex 22.5349 3.25 2
      vertex 18.4651 5.75 2
    endloop
  endfacet
  facet normal 0 0 1
    outer loop
      vertex 22.5349 3.25 2
      vertex 18.4651 3.25 2
      vertex 20.5 2.07513 2
    endloop
  endfacet
  facet normal -0 0 1
    outer loop
      vertex 14.5349 5.75 2
      vertex 18.4651 3.25 2
      vertex 18.4651 5.75 2
    endloop
  endfacet
  facet normal 0 0 1
    outer loop
      vertex 14.5349 5.75 2
      vertex 14.5349 3.25 2
      vertex 18.4651 3.25 2
    endloop
  endfacet
  facet normal 0 0 1
    outer loop
      vertex 10.4651 5.75 2
      vertex 14.5349 5.75 2
      vertex 12.5 6.92487 2
    endloop
  endfacet
  facet normal 0 0 1
    outer loop
      vertex 14.5349 5.75 2
      vertex 10.4651 5.75 2
      vertex 14.5349 3.25 2
    endloop
  endfacet
  facet normal 0 0 1
    outer loop
      vertex 10.4651 3.25 2
      vertex 14.5349 3.25 2
      vertex 10.4651 5.75 2
    endloop
  endfacet
  facet normal 0 0 1
    outer loop
      vertex 14.5349 3.25 2
      vertex 10.4651 3.25 2
      vertex 12.5 2.07513 2
    endloop
  endfacet
  facet normal -0 0 1
    outer loop
      vertex 6.53493 5.75 2
      vertex 10.4651 3.25 2
      vertex 10.4651 5.75 2
    endloop
  endfacet
  facet normal 0 0 1
    outer loop
      vertex 6.53493 5.75 2
      vertex 6.53493 3.25 2
      vertex 10.4651 3.25 2
    endloop
  endfacet
  facet normal 0 0 1
    outer loop
      vertex 2.46507 5.75 2
      vertex 6.53493 5.75 2
      vertex 4.5 6.92487 2
    endloop
  endfacet
  facet normal 0 0 1
    outer loop
      vertex 6.53493 5.75 2
      vertex 2.46507 5.75 2
      vertex 6.53493 3.25 2
    endloop
  endfacet
  facet normal 0 0 1
    outer loop
      vertex 2.46507 3.25 2
      vertex 6.53493 3.25 2
      vertex 2.46507 5.75 2
    endloop
  endfacet
  facet normal 0 0 1
    outer loop
      vertex 6.53493 3.25 2
      vertex 2.46507 3.25 2
      vertex 4.5 2.07513 2
    endloop
  endfacet
  facet normal -0 0 1
    outer loop
      vertex 0 5.75 2
      vertex 2.46507 3.25 2
      vertex 2.46507 5.75 2
    endloop
  endfacet
  facet normal 0 0 1
    outer loop
      vertex 2.46507 3.25 2
      vertex 0 5.75 2
      vertex 0 3.25 2
    endloop
  endfacet
  facet normal -0.5 -0.866025 0
    outer loop
      vertex 4.5 6.92487 2
      vertex 6.53493 5.75 10
      vertex 4.5 6.92487 10
    endloop
  endfacet
  facet normal -0.5 -0.866025 -0
    outer loop
      vertex 6.53493 5.75 10
      vertex 4.5 6.92487 2
      vertex 6.53493 5.75 2
    endloop
  endfacet
  facet normal 0.5 0.866025 -0
    outer loop
      vertex 4.5 2.07513 2
      vertex 2.46507 3.25 10
      vertex 4.5 2.07513 10
    endloop
  endfacet
  facet normal 0.5 0.866025 0
    outer loop
      vertex 2.46507 3.25 10
      vertex 4.5 2.07513 2
      vertex 2.46507 3.25 2
    endloop
  endfacet
  facet normal 0.5 -0.866025 0
    outer loop
      vertex 2.46507 5.75 2
      vertex 4.5 6.92487 10
      vertex 2.46507 5.75 10
    endloop
  endfacet
  facet normal 0.5 -0.866025 0
    outer loop
      vertex 4.5 6.92487 10
      vertex 2.46507 5.75 2
      vertex 4.5 6.92487 2
    endloop
  endfacet
  facet normal -0.5 0.866025 0
    outer loop
      vertex 6.53493 3.25 2
      vertex 4.5 2.07513 10
      vertex 6.53493 3.25 10
    endloop
  endfacet
  facet normal -0.5 0.866025 0
    outer loop
      vertex 4.5 2.07513 10
      vertex 6.53493 3.25 2
      vertex 4.5 2.07513 2
    endloop
  endfacet
  facet normal -0 0 1
    outer loop
      vertex 22.5349 13.75 2
      vertex 25 11.25 2
      vertex 25 13.75 2
    endloop
  endfacet
  facet normal 0 0 1
    outer loop
      vertex 22.5349 13.75 2
      vertex 22.5349 11.25 2
      vertex 25 11.25 2
    endloop
  endfacet
  facet normal 0 0 1
    outer loop
      vertex 18.4651 13.75 2
      vertex 22.5349 13.75 2
      vertex 20.5 14.9249 2
    endloop
  endfacet
  facet normal 0 0 1
    outer loop
      vertex 22.5349 13.75 2
      vertex 18.4651 13.75 2
      vertex 22.5349 11.25 2
    endloop
  endfacet
  facet normal 0 0 1
    outer loop
      vertex 18.4651 11.25 2
      vertex 22.5349 11.25 2
      vertex 18.4651 13.75 2
    endloop
  endfacet
  facet normal 0 0 1
    outer loop
      vertex 22.5349 11.25 2
      vertex 18.4651 11.25 2
      vertex 20.5 10.0751 2
    endloop
  endfacet
  facet normal -0 0 1
    outer loop
      vertex 14.5349 13.75 2
      vertex 18.4651 11.25 2
      vertex 18.4651 13.75 2
    endloop
  endfacet
  facet normal 0 0 1
    outer loop
      vertex 14.5349 13.75 2
      vertex 14.5349 11.25 2
      vertex 18.4651 11.25 2
    endloop
  endfacet
  facet normal 0 0 1
    outer loop
      vertex 10.4651 13.75 2
      vertex 14.5349 13.75 2
      vertex 12.5 14.9249 2
    endloop
  endfacet
  facet normal 0 0 1
    outer loop
      vertex 14.5349 13.75 2
      vertex 10.4651 13.75 2
      vertex 14.5349 11.25 2
    endloop
  endfacet
  facet normal 0 0 1
    outer loop
      vertex 10.4651 11.25 2
      vertex 14.5349 11.25 2
      vertex 10.4651 13.75 2
    endloop
  endfacet
  facet normal 0 0 1
    outer loop
      vertex 14.5349 11.25 2
      vertex 10.4651 11.25 2
      vertex 12.5 10.0751 2
    endloop
  endfacet
  facet normal -0 0 1
    outer loop
      vertex 6.53493 13.75 2
      vertex 10.4651 11.25 2
      vertex 10.4651 13.75 2
    endloop
  endfacet
  facet normal 0 0 1
    outer loop
      vertex 6.53493 13.75 2
      vertex 6.53493 11.25 2
      vertex 10.4651 11.25 2
    endloop
  endfacet
  facet normal 0 0 1
    outer loop
      vertex 2.46507 13.75 2
      vertex 6.53493 13.75 2
      vertex 4.5 14.9249 2
    endloop
  endfacet
  facet normal 0 0 1
    outer loop
      vertex 6.53493 13.75 2
      vertex 2.46507 13.75 2
      vertex 6.53493 11.25 2
    endloop
  endfacet
  facet normal 0 0 1
    outer loop
      vertex 2.46507 11.25 2
      vertex 6.53493 11.25 2
      vertex 2.46507 13.75 2
    endloop
  endfacet
  facet normal 0 0 1
    outer loop
      vertex 6.53493 11.25 2
      vertex 2.46507 11.25 2
      vertex 4.5 10.0751 2
    endloop
  endfacet
  facet normal -0 0 1
    outer loop
      vertex 0 13.75 2
      vertex 2.46507 11.25 2
      vertex 2.46507 13.75 2
    endloop
  endfacet
  facet normal 0 0 1
    outer loop
      vertex 2.46507 11.25 2
      vertex 0 13.75 2
      vertex 0 11.25 2
    endloop
  endfacet
  facet normal -0.5 -0.866025 0
    outer loop
      vertex 4.5 14.9249 2
      vertex 6.53493 13.75 10
      vertex 4.5 14.9249 10
    endloop
  endfacet
  facet normal -0.5 -0.866025 -0
    outer loop
      vertex 6.53493 13.75 10
      vertex 4.5 14.9249 2
      vertex 6.53493 13.75 2
    endloop
  endfacet
  facet normal 0.5 0.866025 -0
    outer loop
      vertex 4.5 10.0751 2
      vertex 2.46507 11.25 10
      vertex 4.5 10.0751 10
    endloop
  endfacet
  facet normal 0.5 0.866025 0
    outer loop
      vertex 2.46507 11.25 10
      vertex 4.5 10.0751 2
      vertex 2.46507 11.25 2
    endloop
  endfacet
  facet normal 0.5 -0.866025 0
    outer loop
      vertex 2.46507 13.75 2
      vertex 4.5 14.9249 10
      vertex 2.46507 13.75 10
    endloop
  endfacet
  facet normal 0.5 -0.866025 0
    outer loop
      vertex 4.5 14.9249 10
      vertex 2.46507 13.75 2
      vertex 4.5 14.9249 2
    endloop
  endfacet
  facet normal -0.5 0.866025 0
    outer loop
      vertex 6.53493 11.25 2
      vertex 4.5 10.0751 10
      vertex 6.53493 11.25 10
    endloop
  endfacet
  facet normal -0.5 0.866025 0
    outer loop
      vertex 4.5 10.0751 10
      vertex 6.53493 11.25 2
      vertex 4.5 10.0751 2
    endloop
  endfacet
  facet normal -0 0 1
    outer loop
      vertex 22.5349 21.75 2
      vertex 25 19.25 2
      vertex 25 21.75 2
    endloop
  endfacet
  facet normal 0 0 1
    outer loop
      vertex 22.5349 21.75 2
      vertex 22.5349 19.25 2
      vertex 25 19.25 2
    endloop
  endfacet
  facet normal 0 0 1
    outer loop
      vertex 18.4651 21.75 2
      vertex 22.5349 21.75 2
      vertex 20.5 22.9249 2
    endloop
  endfacet
  facet normal 0 0 1
    outer loop
      vertex 22.5349 21.75 2
      vertex 18.4651 21.75 2
      vertex 22.5349 19.25 2
    endloop
  endfacet
  facet normal 0 0 1
    outer loop
      vertex 18.4651 19.25 2
      vertex 22.5349 19.25 2
      vertex 18.4651 21.75 2
    endloop
  endfacet
  facet normal 0 0 1
    outer loop
      vertex 22.5349 19.25 2
      vertex 18.4651 19.25 2
      vertex 20.5 18.0751 2
    endloop
  endfacet
  facet normal -0 0 1
    outer loop
      vertex 14.5349 21.75 2
      vertex 18.4651 19.25 2
      vertex 18.4651 21.75 2
    endloop
  endfacet
  facet normal 0 0 1
    outer loop
      vertex 14.5349 21.75 2
      vertex 14.5349 19.25 2
      vertex 18.4651 19.25 2
    endloop
  endfacet
  facet normal 0 0 1
    outer loop
      vertex 10.4651 21.75 2
      vertex 14.5349 21.75 2
      vertex 12.5 22.9249 2
    endloop
  endfacet
  facet normal 0 0 1
    outer loop
      vertex 14.5349 21.75 2
      vertex 10.4651 21.75 2
      vertex 14.5349 19.25 2
    endloop
  endfacet
  facet normal 0 0 1
    outer loop
      vertex 10.4651 19.25 2
      vertex 14.5349 19.25 2
      vertex 10.4651 21.75 2
    endloop
  endfacet
  facet normal 0 0 1
    outer loop
      vertex 14.5349 19.25 2
      vertex 10.4651 19.25 2
      vertex 12.5 18.0751 2
    endloop
  endfacet
  facet normal -0 0 1
    outer loop
      vertex 6.53493 21.75 2
      vertex 10.4651 19.25 2
      vertex 10.4651 21.75 2
    endloop
  endfacet
  facet normal 0 0 1
    outer loop
      vertex 6.53493 21.75 2
      vertex 6.53493 19.25 2
      vertex 10.4651 19.25 2
    endloop
  endfacet
  facet normal 0 0 1
    outer loop
      vertex 2.46507 21.75 2
      vertex 6.53493 21.75 2
      vertex 4.5 22.9249 2
    endloop
  endfacet
  facet normal 0 0 1
    outer loop
      vertex 6.53493 21.75 2
      vertex 2.46507 21.75 2
      vertex 6.53493 19.25 2
    endloop
  endfacet
  facet normal 0 0 1
    outer loop
      vertex 2.46507 19.25 2
      vertex 6.53493 19.25 2
      vertex 2.46507 21.75 2
    endloop
  endfacet
  facet normal 0 0 1
    outer loop
      vertex 6.53493 19.25 2
      vertex 2.46507 19.25 2
      vertex 4.5 18.0751 2
    endloop
  endfacet
  facet normal -0 0 1
    outer loop
      vertex 0 21.75 2
      vertex 2.46507 19.25 2
      vertex 2.46507 21.75 2
    endloop
  endfacet
  facet normal 0 0 1
    outer loop
      vertex 2.46507 19.25 2
      vertex 0 21.75 2
      vertex 0 19.25 2
    endloop
  endfacet
  facet normal -0.5 -0.866025 0
    outer loop
      vertex 4.5 22.9249 2
      vertex 6.53493 21.75 10
      vertex 4.5 22.9249 10
    endloop
  endfacet
  facet normal -0.5 -0.866025 -0
    outer loop
      vertex 6.53493 21.75 10
      vertex 4.5 22.9249 2
      vertex 6.53493 21.75 2
    endloop
  endfacet
  facet normal 0.5 0.866025 -0
    outer loop
      vertex 4.5 18.0751 2
      vertex 2.46507 19.25 10
      vertex 4.5 18.0751 10
    endloop
  endfacet
  facet normal 0.5 0.866025 0
    outer loop
      vertex 2.46507 19.25 10
      vertex 4.5 18.0751 2
      vertex 2.46507 19.25 2
    endloop
  endfacet
  facet normal 0.5 -0.866025 0
    outer loop
      vertex 2.46507 21.75 2
      vertex 4.5 22.9249 10
      vertex 2.46507 21.75 10
    endloop
  endfacet
  facet normal 0.5 -0.866025 0
    outer loop
      vertex 4.5 22.9249 10
      vertex 2.46507 21.75 2
      vertex 4.5 22.9249 2
    endloop
  endfacet
  facet normal -0.5 0.866025 0
    outer loop
      vertex 6.53493 19.25 2
      vertex 4.5 18.0751 10
      vertex 6.53493 19.25 10
    endloop
  endfacet
  facet normal -0.5 0.866025 0
    outer loop
      vertex 4.5 18.0751 10
      vertex 6.53493 19.25 2
      vertex 4.5 18.0751 2
    endloop
  endfacet
  facet normal -0.5 -0.866025 0
    outer loop
      vertex 12.5 6.92487 2
      vertex 14.5349 5.75 10
      vertex 12.5 6.92487 10
    endloop
  endfacet
  facet normal -0.5 -0.866025 -0
    outer loop
      vertex 14.5349 5.75 10
      vertex 12.5 6.92487 2
      vertex 14.5349 5.75 2
    endloop
  endfacet
  facet normal 0.5 0.866025 -0
    outer loop
      vertex 12.5 2.07513 2
      vertex 10.4651 3.25 10
      vertex 12.5 2.07513 10
    endloop
  endfacet
  facet normal 0.5 0.866025 0
    outer loop
      vertex 10.4651 3.25 10
      vertex 12.5 2.07513 2
      vertex 10.4651 3.25 2
    endloop
  endfacet
  facet normal 0.5 -0.866025 0
    outer loop
      vertex 10.4651 5.75 2
      vertex 12.5 6.92487 10
      vertex 10.4651 5.75 10
    endloop
  endfacet
  facet normal 0.5 -0.866025 0
    outer loop
      vertex 12.5 6.92487 10
      vertex 10.4651 5.75 2
      vertex 12.5 6.92487 2
    endloop
  endfacet
  facet normal -0.5 0.866025 0
    outer loop
      vertex 14.5349 3.25 2
      vertex 12.5 2.07513 10
      vertex 14.5349 3.25 10
    endloop
  endfacet
  facet normal -0.5 0.866025 0
    outer loop
      vertex 12.5 2.07513 10
      vertex 14.5349 3.25 2
      vertex 12.5 2.07513 2
    endloop
  endfacet
  facet normal -0.5 -0.866025 0
    outer loop
      vertex 12.5 14.9249 2
      vertex 14.5349 13.75 10
      vertex 12.5 14.9249 10
    endloop
  endfacet
  facet normal -0.5 -0.866025 -0
    outer loop
      vertex 14.5349 13.75 10
      vertex 12.5 14.9249 2
      vertex 14.5349 13.75 2
    endloop
  endfacet
  facet normal 0.5 0.866025 -0
    outer loop
      vertex 12.5 10.0751 2
      vertex 10.4651 11.25 10
      vertex 12.5 10.0751 10
    endloop
  endfacet
  facet normal 0.5 0.866025 0
    outer loop
      vertex 10.4651 11.25 10
      vertex 12.5 10.0751 2
      vertex 10.4651 11.25 2
    endloop
  endfacet
  facet normal 0.5 -0.866025 0
    outer loop
      vertex 10.4651 13.75 2
      vertex 12.5 14.9249 10
      vertex 10.4651 13.75 10
    endloop
  endfacet
  facet normal 0.5 -0.866025 0
    outer loop
      vertex 12.5 14.9249 10
      vertex 10.4651 13.75 2
      vertex 12.5 14.9249 2
    endloop
  endfacet
  facet normal -0.5 0.866025 0
    outer loop
      vertex 14.5349 11.25 2
      vertex 12.5 10.0751 10
      vertex 14.5349 11.25 10
    endloop
  endfacet
  facet normal -0.5 0.866025 0
    outer loop
      vertex 12.5 10.0751 10
      vertex 14.5349 11.25 2
      vertex 12.5 10.0751 2
    endloop
  endfacet
  facet normal -0.5 -0.866026 0
    outer loop
      vertex 12.5 22.9249 2
      vertex 14.5349 21.75 10
      vertex 12.5 22.9249 10
    endloop
  endfacet
  facet normal -0.5 -0.866026 -0
    outer loop
      vertex 14.5349 21.75 10
      vertex 12.5 22.9249 2
      vertex 14.5349 21.75 2
    endloop
  endfacet
  facet normal 0.5 0.866026 -0
    outer loop
      vertex 12.5 18.0751 2
      vertex 10.4651 19.25 10
      vertex 12.5 18.0751 10
    endloop
  endfacet
  facet normal 0.5 0.866026 0
    outer loop
      vertex 10.4651 19.25 10
      vertex 12.5 18.0751 2
      vertex 10.4651 19.25 2
    endloop
  endfacet
  facet normal 0.5 -0.866026 0
    outer loop
      vertex 10.4651 21.75 2
      vertex 12.5 22.9249 10
      vertex 10.4651 21.75 10
    endloop
  endfacet
  facet normal 0.5 -0.866026 0
    outer loop
      vertex 12.5 22.9249 10
      vertex 10.4651 21.75 2
      vertex 12.5 22.9249 2
    endloop
  endfacet
  facet normal -0.5 0.866026 0
    outer loop
      vertex 14.5349 19.25 2
      vertex 12.5 18.0751 10
      vertex 14.5349 19.25 10
    endloop
  endfacet
  facet normal -0.5 0.866026 0
    outer loop
      vertex 12.5 18.0751 10
      vertex 14.5349 19.25 2
      vertex 12.5 18.0751 2
    endloop
  endfacet
  facet normal -0.5 -0.866025 0
    outer loop
      vertex 20.5 6.92487 2
      vertex 22.5349 5.75 10
      vertex 20.5 6.92487 10
    endloop
  endfacet
  facet normal -0.5 -0.866025 -0
    outer loop
      vertex 22.5349 5.75 10
      vertex 20.5 6.92487 2
      vertex 22.5349 5.75 2
    endloop
  endfacet
  facet normal 0.5 0.866025 -0
    outer loop
      vertex 20.5 2.07513 2
      vertex 18.4651 3.25 10
      vertex 20.5 2.07513 10
    endloop
  endfacet
  facet normal 0.5 0.866025 0
    outer loop
      vertex 18.4651 3.25 10
      vertex 20.5 2.07513 2
      vertex 18.4651 3.25 2
    endloop
  endfacet
  facet normal 0.5 -0.866025 0
    outer loop
      vertex 18.4651 5.75 2
      vertex 20.5 6.92487 10
      vertex 18.4651 5.75 10
    endloop
  endfacet
  facet normal 0.5 -0.866025 0
    outer loop
      vertex 20.5 6.92487 10
      vertex 18.4651 5.75 2
      vertex 20.5 6.92487 2
    endloop
  endfacet
  facet normal -0.5 0.866025 0
    outer loop
      vertex 22.5349 3.25 2
      vertex 20.5 2.07513 10
      vertex 22.5349 3.25 10
    endloop
  endfacet
  facet normal -0.5 0.866025 0
    outer loop
      vertex 20.5 2.07513 10
      vertex 22.5349 3.25 2
      vertex 20.5 2.07513 2
    endloop
  endfacet
  facet normal -0.5 -0.866025 0
    outer loop
      vertex 20.5 14.9249 2
      vertex 22.5349 13.75 10
      vertex 20.5 14.9249 10
    endloop
  endfacet
  facet normal -0.5 -0.866025 -0
    outer loop
      vertex 22.5349 13.75 10
      vertex 20.5 14.9249 2
      vertex 22.5349 13.75 2
    endloop
  endfacet
  facet normal 0.5 0.866025 -0
    outer loop
      vertex 20.5 10.0751 2
      vertex 18.4651 11.25 10
      vertex 20.5 10.0751 10
    endloop
  endfacet
  facet normal 0.5 0.866025 0
    outer loop
      vertex 18.4651 11.25 10
      vertex 20.5 10.0751 2
      vertex 18.4651 11.25 2
    endloop
  endfacet
  facet normal 0.5 -0.866025 0
    outer loop
      vertex 18.4651 13.75 2
      vertex 20.5 14.9249 10
      vertex 18.4651 13.75 10
    endloop
  endfacet
  facet normal 0.5 -0.866025 0
    outer loop
      vertex 20.5 14.9249 10
      vertex 18.4651 13.75 2
      vertex 20.5 14.9249 2
    endloop
  endfacet
  facet normal -0.5 0.866025 0
    outer loop
      vertex 22.5349 11.25 2
      vertex 20.5 10.0751 10
      vertex 22.5349 11.25 10
    endloop
  endfacet
  facet normal -0.5 0.866025 0
    outer loop
      vertex 20.5 10.0751 10
      vertex 22.5349 11.25 2
      vertex 20.5 10.0751 2
    endloop
  endfacet
  facet normal -0.5 -0.866026 0
    outer loop
      vertex 20.5 22.9249 2
      vertex 22.5349 21.75 10
      vertex 20.5 22.9249 10
    endloop
  endfacet
  facet normal -0.5 -0.866026 -0
    outer loop
      vertex 22.5349 21.75 10
      vertex 20.5 22.9249 2
      vertex 22.5349 21.75 2
    endloop
  endfacet
  facet normal 0.5 0.866026 -0
    outer loop
      vertex 20.5 18.0751 2
      vertex 18.4651 19.25 10
      vertex 20.5 18.0751 10
    endloop
  endfacet
  facet normal 0.5 0.866026 0
    outer loop
      vertex 18.4651 19.25 10
      vertex 20.5 18.0751 2
      vertex 18.4651 19.25 2
    endloop
  endfacet
  facet normal 0.5 -0.866026 0
    outer loop
      vertex 18.4651 21.75 2
      vertex 20.5 22.9249 10
      vertex 18.4651 21.75 10
    endloop
  endfacet
  facet normal 0.5 -0.866026 0
    outer loop
      vertex 20.5 22.9249 10
      vertex 18.4651 21.75 2
      vertex 20.5 22.9249 2
    endloop
  endfacet
  facet normal -0.5 0.866026 0
    outer loop
      vertex 22.5349 19.25 2
      vertex 20.5 18.0751 10
      vertex 22.5349 19.25 10
    endloop
  endfacet
  facet normal -0.5 0.866026 0
    outer loop
      vertex 20.5 18.0751 10
      vertex 22.5349 19.25 2
      vertex 20.5 18.0751 2
    endloop
  endfacet
  facet normal -1 0 0
    outer loop
      vertex 0 25 0
      vertex 0 21.75 2
      vertex 0 25 10
    endloop
  endfacet
  facet normal -1 0 0
    outer loop
      vertex 0 25 0
      vertex 0 19.25 2
      vertex 0 21.75 2
    endloop
  endfacet
  facet normal -1 0 0
    outer loop
      vertex 0 19.25 2
      vertex 0 13.75 2
      vertex 0 19.25 10
    endloop
  endfacet
  facet normal -1 0 0
    outer loop
      vertex 0 25 0
      vertex 0 13.75 2
      vertex 0 19.25 2
    endloop
  endfacet
  facet normal -1 0 0
    outer loop
      vertex 0 25 0
      vertex 0 11.25 2
      vertex 0 13.75 2
    endloop
  endfacet
  facet normal -1 0 0
    outer loop
      vertex 0 11.25 2
      vertex 0 5.75 2
      vertex 0 11.25 10
    endloop
  endfacet
  facet normal -1 0 0
    outer loop
      vertex 0 0 0
      vertex 0 11.25 2
      vertex 0 25 0
    endloop
  endfacet
  facet normal -1 -0 0
    outer loop
      vertex 0 11.25 2
      vertex 0 0 0
      vertex 0 5.75 2
    endloop
  endfacet
  facet normal -1 -0 0
    outer loop
      vertex 0 5.75 2
      vertex 0 0 0
      vertex 0 3.25 2
    endloop
  endfacet
  facet normal -1 0 0
    outer loop
      vertex 0 0 10
      vertex 0 3.25 2
      vertex 0 0 0
    endloop
  endfacet
  facet normal -1 0 0
    outer loop
      vertex 0 3.25 2
      vertex 0 0 10
      vertex 0 3.25 10
    endloop
  endfacet
  facet normal -1 -0 0
    outer loop
      vertex 0 25 10
      vertex 0 21.75 2
      vertex 0 21.75 10
    endloop
  endfacet
  facet normal -1 -0 0
    outer loop
      vertex 0 19.25 10
      vertex 0 13.75 2
      vertex 0 13.75 10
    endloop
  endfacet
  facet normal -1 -0 0
    outer loop
      vertex 0 11.25 10
      vertex 0 5.75 2
      vertex 0 5.75 10
    endloop
  endfacet
  facet normal 1 0 0
    outer loop
      vertex 25 3.25 10
      vertex 25 0 10
      vertex 25 3.25 2
    endloop
  endfacet
  facet normal 1 0 0
    outer loop
      vertex 25 11.25 10
      vertex 25 5.75 10
      vertex 25 11.25 2
    endloop
  endfacet
  facet normal 1 0 0
    outer loop
      vertex 25 19.25 10
      vertex 25 13.75 10
      vertex 25 19.25 2
    endloop
  endfacet
  facet normal 1 0 0
    outer loop
      vertex 25 21.75 2
      vertex 25 25 10
      vertex 25 21.75 10
    endloop
  endfacet
  facet normal 1 0 0
    outer loop
      vertex 25 25 10
      vertex 25 21.75 2
      vertex 25 25 0
    endloop
  endfacet
  facet normal 1 -0 0
    outer loop
      vertex 25 19.25 2
      vertex 25 25 0
      vertex 25 21.75 2
    endloop
  endfacet
  facet normal 1 0 0
    outer loop
      vertex 25 13.75 2
      vertex 25 19.25 2
      vertex 25 13.75 10
    endloop
  endfacet
  facet normal 1 -0 0
    outer loop
      vertex 25 13.75 2
      vertex 25 25 0
      vertex 25 19.25 2
    endloop
  endfacet
  facet normal 1 -0 0
    outer loop
      vertex 25 11.25 2
      vertex 25 25 0
      vertex 25 13.75 2
    endloop
  endfacet
  facet normal 1 0 0
    outer loop
      vertex 25 5.75 2
      vertex 25 11.25 2
      vertex 25 5.75 10
    endloop
  endfacet
  facet normal 1 0 0
    outer loop
      vertex 25 0 0
      vertex 25 11.25 2
      vertex 25 5.75 2
    endloop
  endfacet
  facet normal 1 0 0
    outer loop
      vertex 25 0 0
      vertex 25 5.75 2
      vertex 25 3.25 2
    endloop
  endfacet
  facet normal 1 0 0
    outer loop
      vertex 25 11.25 2
      vertex 25 0 0
      vertex 25 25 0
    endloop
  endfacet
  facet normal 1 0 0
    outer loop
      vertex 25 0 0
      vertex 25 3.25 2
      vertex 25 0 10
    endloop
  endfacet
  facet normal 0 -1 0
    outer loop
      vertex 22.5349 5.75 2
      vertex 25 5.75 10
      vertex 22.5349 5.75 10
    endloop
  endfacet
  facet normal 0 -1 -0
    outer loop
      vertex 25 5.75 10
      vertex 22.5349 5.75 2
      vertex 25 5.75 2
    endloop
  endfacet
  facet normal 0 -1 0
    outer loop
      vertex 0 5.75 2
      vertex 2.46507 5.75 10
      vertex 0 5.75 10
    endloop
  endfacet
  facet normal 0 -1 -0
    outer loop
      vertex 2.46507 5.75 10
      vertex 0 5.75 2
      vertex 2.46507 5.75 2
    endloop
  endfacet
  facet normal 0 -1 0
    outer loop
      vertex 6.53493 5.75 2
      vertex 10.4651 5.75 10
      vertex 6.53493 5.75 10
    endloop
  endfacet
  facet normal 0 -1 -0
    outer loop
      vertex 10.4651 5.75 10
      vertex 6.53493 5.75 2
      vertex 10.4651 5.75 2
    endloop
  endfacet
  facet normal 0 -1 0
    outer loop
      vertex 14.5349 5.75 2
      vertex 18.4651 5.75 10
      vertex 14.5349 5.75 10
    endloop
  endfacet
  facet normal 0 -1 -0
    outer loop
      vertex 18.4651 5.75 10
      vertex 14.5349 5.75 2
      vertex 18.4651 5.75 2
    endloop
  endfacet
  facet normal 0 1 -0
    outer loop
      vertex 2.46507 3.25 2
      vertex 0 3.25 10
      vertex 2.46507 3.25 10
    endloop
  endfacet
  facet normal 0 1 0
    outer loop
      vertex 0 3.25 10
      vertex 2.46507 3.25 2
      vertex 0 3.25 2
    endloop
  endfacet
  facet normal 0 1 -0
    outer loop
      vertex 25 3.25 2
      vertex 22.5349 3.25 10
      vertex 25 3.25 10
    endloop
  endfacet
  facet normal 0 1 0
    outer loop
      vertex 22.5349 3.25 10
      vertex 25 3.25 2
      vertex 22.5349 3.25 2
    endloop
  endfacet
  facet normal 0 1 -0
    outer loop
      vertex 10.4651 3.25 2
      vertex 6.53493 3.25 10
      vertex 10.4651 3.25 10
    endloop
  endfacet
  facet normal 0 1 0
    outer loop
      vertex 6.53493 3.25 10
      vertex 10.4651 3.25 2
      vertex 6.53493 3.25 2
    endloop
  endfacet
  facet normal 0 1 -0
    outer loop
      vertex 18.4651 3.25 2
      vertex 14.5349 3.25 10
      vertex 18.4651 3.25 10
    endloop
  endfacet
  facet normal 0 1 0
    outer loop
      vertex 14.5349 3.25 10
      vertex 18.4651 3.25 2
      vertex 14.5349 3.25 2
    endloop
  endfacet
  facet normal 0 1 -0
    outer loop
      vertex 2.46507 11.25 2
      vertex 0 11.25 10
      vertex 2.46507 11.25 10
    endloop
  endfacet
  facet normal 0 1 0
    outer loop
      vertex 0 11.25 10
      vertex 2.46507 11.25 2
      vertex 0 11.25 2
    endloop
  endfacet
  facet normal 0 1 -0
    outer loop
      vertex 25 11.25 2
      vertex 22.5349 11.25 10
      vertex 25 11.25 10
    endloop
  endfacet
  facet normal 0 1 0
    outer loop
      vertex 22.5349 11.25 10
      vertex 25 11.25 2
      vertex 22.5349 11.25 2
    endloop
  endfacet
  facet normal 0 1 -0
    outer loop
      vertex 10.4651 11.25 2
      vertex 6.53493 11.25 10
      vertex 10.4651 11.25 10
    endloop
  endfacet
  facet normal 0 1 0
    outer loop
      vertex 6.53493 11.25 10
      vertex 10.4651 11.25 2
      vertex 6.53493 11.25 2
    endloop
  endfacet
  facet normal 0 1 -0
    outer loop
      vertex 18.4651 11.25 2
      vertex 14.5349 11.25 10
      vertex 18.4651 11.25 10
    endloop
  endfacet
  facet normal 0 1 0
    outer loop
      vertex 14.5349 11.25 10
      vertex 18.4651 11.25 2
      vertex 14.5349 11.25 2
    endloop
  endfacet
  facet normal 0 -1 0
    outer loop
      vertex 22.5349 13.75 2
      vertex 25 13.75 10
      vertex 22.5349 13.75 10
    endloop
  endfacet
  facet normal 0 -1 -0
    outer loop
      vertex 25 13.75 10
      vertex 22.5349 13.75 2
      vertex 25 13.75 2
    endloop
  endfacet
  facet normal 0 -1 0
    outer loop
      vertex 0 13.75 2
      vertex 2.46507 13.75 10
      vertex 0 13.75 10
    endloop
  endfacet
  facet normal 0 -1 -0
    outer loop
      vertex 2.46507 13.75 10
      vertex 0 13.75 2
      vertex 2.46507 13.75 2
    endloop
  endfacet
  facet normal 0 -1 0
    outer loop
      vertex 6.53493 13.75 2
      vertex 10.4651 13.75 10
      vertex 6.53493 13.75 10
    endloop
  endfacet
  facet normal 0 -1 -0
    outer loop
      vertex 10.4651 13.75 10
      vertex 6.53493 13.75 2
      vertex 10.4651 13.75 2
    endloop
  endfacet
  facet normal 0 -1 0
    outer loop
      vertex 14.5349 13.75 2
      vertex 18.4651 13.75 10
      vertex 14.5349 13.75 10
    endloop
  endfacet
  facet normal 0 -1 -0
    outer loop
      vertex 18.4651 13.75 10
      vertex 14.5349 13.75 2
      vertex 18.4651 13.75 2
    endloop
  endfacet
  facet normal 0 -1 0
    outer loop
      vertex 22.5349 21.75 2
      vertex 25 21.75 10
      vertex 22.5349 21.75 10
    endloop
  endfacet
  facet normal 0 -1 -0
    outer loop
      vertex 25 21.75 10
      vertex 22.5349 21.75 2
      vertex 25 21.75 2
    endloop
  endfacet
  facet normal 0 -1 0
    outer loop
      vertex 0 21.75 2
      vertex 2.46507 21.75 10
      vertex 0 21.75 10
    endloop
  endfacet
  facet normal 0 -1 -0
    outer loop
      vertex 2.46507 21.75 10
      vertex 0 21.75 2
      vertex 2.46507 21.75 2
    endloop
  endfacet
  facet normal 0 -1 0
    outer loop
      vertex 6.53493 21.75 2
      vertex 10.4651 21.75 10
      vertex 6.53493 21.75 10
    endloop
  endfacet
  facet normal 0 -1 -0
    outer loop
      vertex 10.4651 21.75 10
      vertex 6.53493 21.75 2
      vertex 10.4651 21.75 2
    endloop
  endfacet
  facet normal 0 -1 0
    outer loop
      vertex 14.5349 21.75 2
      vertex 18.4651 21.75 10
      vertex 14.5349 21.75 10
    endloop
  endfacet
  facet normal 0 -1 -0
    outer loop
      vertex 18.4651 21.75 10
      vertex 14.5349 21.75 2
      vertex 18.4651 21.75 2
    endloop
  endfacet
  facet normal 0 1 -0
    outer loop
      vertex 2.46507 19.25 2
      vertex 0 19.25 10
      vertex 2.46507 19.25 10
    endloop
  endfacet
  facet normal 0 1 0
    outer loop
      vertex 0 19.25 10
      vertex 2.46507 19.25 2
      vertex 0 19.25 2
    endloop
  endfacet
  facet normal 0 1 -0
    outer loop
      vertex 25 19.25 2
      vertex 22.5349 19.25 10
      vertex 25 19.25 10
    endloop
  endfacet
  facet normal 0 1 0
    outer loop
      vertex 22.5349 19.25 10
      vertex 25 19.25 2
      vertex 22.5349 19.25 2
    endloop
  endfacet
  facet normal 0 1 -0
    outer loop
      vertex 10.4651 19.25 2
      vertex 6.53493 19.25 10
      vertex 10.4651 19.25 10
    endloop
  endfacet
  facet normal 0 1 0
    outer loop
      vertex 6.53493 19.25 10
      vertex 10.4651 19.25 2
      vertex 6.53493 19.25 2
    endloop
  endfacet
  facet normal 0 1 -0
    outer loop
      vertex 18.4651 19.25 2
      vertex 14.5349 19.25 10
      vertex 18.4651 19.25 10
    endloop
  endfacet
  facet normal 0 1 0
    outer loop
      vertex 14.5349 19.25 10
      vertex 18.4651 19.25 2
      vertex 14.5349 19.25 2
    endloop
  endfacet
  facet normal 0 0 -1
    outer loop
      vertex 0 0 0
      vertex 25 25 0
      vertex 25 0 0
    endloop
  endfacet
  facet normal -0 0 -1
    outer loop
      vertex 25 25 0
      vertex 0 0 0
      vertex 0 25 0
    endloop
  endfacet
  facet normal 0 -1 0
    outer loop
      vertex 0 0 0
      vertex 25 0 10
      vertex 0 0 10
    endloop
  endfacet
  facet normal 0 -1 -0
    outer loop
      vertex 25 0 10
      vertex 0 0 0
      vertex 25 0 0
    endloop
  endfacet
  facet normal 0 1 -0
    outer loop
      vertex 25 25 0
      vertex 0 25 10
      vertex 25 25 10
    endloop
  endfacet
  facet normal 0 1 0
    outer loop
      vertex 0 25 10
      vertex 25 25 0
      vertex 0 25 0
    endloop
  endfacet
endsolid OpenSCAD_Model
